/* XPM */
static char *_8e57aba565b47dcfc69645fcece88d7oYXkD2CmjJDcnVh1[] = {
/* columns rows colors chars-per-pixel */
"64 64 2 1 ",
"  c None",
". c #BB9F89",
/* pixels */
"                                                                ",
"                              ....                              ",
"                              ....                              ",
"                         .    ....    .                         ",
"                       ...    ....    ...                       ",
"                     ......          ......                     ",
"                  .........          .........                  ",
"                ...........          ...........                ",
"              ...........              ...........              ",
"           ............                  ............           ",
"         ............                      ............         ",
"        ..........                            ..........        ",
"         .......                                .......         ",
"         .....                                    .....         ",
" ....    ...                                        ...    .... ",
" ....                                                      .... ",
" ....                                                      .... ",
" ....                                                      .... ",
"                                                     ..         ",
"         ....                                      ....         ",
"         .......                                .......         ",
"        ...........                          ...........        ",
" ....   ..............                    ..............   .... ",
" ....      ..............              ..............      .... ",
" ....        ..............          ..............        .... ",
" ....           ...........          ...........           .... ",
" ....              ........          ........              .... ",
" ....                 ....    ....    ....                 .... ",
" ....                    .    ....                         .... ",
" ....                         ....                         .... ",
" ....                         ....                         .... ",
" ....                                                      .... ",
" ....                                                      .... ",
" ....                         ....                         .... ",
" ....                         ....                         .... ",
" ....                         ....                         .... ",
" ....                         ....                         .... ",
" ....                         ....                         .... ",
" ....                         ....                         .... ",
" ....                         ....                         .... ",
" ....                         ....                         .... ",
" ....                         ....                         .... ",
" ....                         ....                         .... ",
" ....                         ....                         .... ",
" ....                         ....                         .... ",
"                              ....                              ",
"                              ....                              ",
"                              ....                              ",
"                              ....                              ",
" ....                         ....                         .... ",
" ....                         ....                         .... ",
" ....    ....                 ....                 ....    .... ",
" ....    .......              ....              .......    .... ",
"         .........            ....            .........         ",
"        ..............        ....        ..............        ",
"         ...............                ...............         ",
"             ..............          ..............             ",
"                ...........          ...........                ",
"                   ........          ........                   ",
"                      .....   ....   .....                      ",
"                        ..    ....    ..                        ",
"                              ....                              ",
"                              ....                              ",
"                                                                "
};
